# xmcd CD database file
#
# Track frame offsets:
#	150
#	18198
#	34265
#	47560
#	67205
#	82013
#	108890
#	125063
#	142983
#	156200
#
# Disc length: 2306 seconds
#
# Revision: 1
# Processed by: cddbd v1.5.2PL0 Copyright (c) Steve Scherf et al.
# Submitted via: CDex 1.51
#
DISCID=8509000a
DTITLE=Cass Kennedy - Icons
DYEAR=1993
DGENRE=Folk
TTITLE0=moravia
TTITLE1=as the day is long
TTITLE2=white horse
TTITLE3=goodbye song
TTITLE4=delilah cried
TTITLE5=icons
TTITLE6=sky full of moon
TTITLE7=doomsday love
TTITLE8=goin' down
TTITLE9=becky and elias
EXTD=Produced by Dede Vogt and Cass Kennedy\n© 1993 Dancing Flight Music\nsubmitted by Bryan Walls <mailto:bwalls@pobox.com> YEAR: 1993
EXTT0=
EXTT1=
EXTT2=
EXTT3=
EXTT4=
EXTT5=
EXTT6=
EXTT7=
EXTT8=
EXTT9=
PLAYORDER=
